<svg width="256" height="256" viewBox="0 0 256 256" fill="none" xmlns="http://www.w3.org/2000/svg">
<rect width="256" height="256" fill="white"/>
<path d="M121.34 203.569C116.227 205.218 110.668 204.791 105.868 202.378C101.071 199.966 97.4206 195.764 95.7132 190.687C94.8907 188.171 94.5767 185.516 94.789 182.878C95.0026 180.239 95.7386 177.67 96.9553 175.317C98.1732 172.964 99.8462 170.875 101.879 169.17C103.912 167.465 106.264 166.18 108.798 165.387C113.917 163.739 119.482 164.172 124.281 166.593C129.08 169.012 132.726 173.223 134.426 178.307C135.248 180.821 135.562 183.473 135.347 186.109C135.134 188.744 134.398 191.311 133.18 193.662C131.963 196.011 130.29 198.097 128.257 199.798C126.225 201.499 123.874 202.781 121.34 203.569Z" fill="#E31E52"/>
<path d="M118.753 134.531L101.179 63.1414C100.679 61.1804 99.7816 59.3423 98.5395 57.7414C97.2987 56.1403 95.7401 54.8104 93.9615 53.8341C92.183 52.8578 90.2226 52.2558 88.2012 52.0655C86.1799 51.8752 84.1407 52.1007 82.2096 52.728L63.1641 58.8217C61.2546 59.4358 59.4926 60.4334 57.9861 61.7527C56.4796 63.0721 55.2604 64.6852 54.4036 66.4925C53.548 68.2998 53.0725 70.2628 53.0077 72.2603C52.9428 74.2578 53.2899 76.2473 54.0273 78.1058L82.1714 146.218C83.6182 149.641 86.3019 152.401 89.6925 153.951C93.0818 155.501 96.9326 155.727 100.482 154.587L108.921 151.848C112.451 150.731 115.428 148.326 117.251 145.113C119.075 141.902 119.611 138.121 118.753 134.531Z" fill="#E31E52"/>
<path d="M200.248 115.48C210.739 147.26 189.68 176.92 163.472 185.25C160.561 186.203 157.396 186.025 154.611 184.752C151.826 183.478 149.626 181.205 148.452 178.385L144.232 168.164C143.607 166.623 143.308 164.969 143.359 163.306C143.408 161.645 143.804 160.011 144.521 158.51C145.238 157.008 146.261 155.672 147.524 154.585C148.787 153.498 150.263 152.685 151.859 152.196L152.904 151.889C155.493 151.11 157.901 149.827 159.989 148.114C162.076 146.402 163.801 144.293 165.065 141.91C166.33 139.529 167.107 136.92 167.351 134.238C167.596 131.554 167.304 128.849 166.491 126.28C164.736 121.091 160.987 116.811 156.065 114.374C151.145 111.937 145.456 111.544 140.245 113.282L139.2 113.629C137.62 114.126 135.953 114.298 134.304 114.132C132.656 113.967 131.058 113.469 129.608 112.667C128.159 111.866 126.889 110.779 125.876 109.472C124.862 108.165 124.128 106.666 123.716 105.067L120.89 94.5377C120.168 91.5755 120.602 88.4507 122.104 85.7949C123.605 83.1384 126.063 81.1493 128.98 80.2289C155.071 71.8981 189.758 83.6615 200.248 115.48Z" fill="#E31E52"/>
</svg>
