<?xml version="1.0" encoding="UTF-8"?>
<svg xmlns="http://www.w3.org/2000/svg" xmlns:xlink="http://www.w3.org/1999/xlink" width="145px" height="46px" viewBox="0 0 143 46" version="1.1">
<defs>
<filter id="alpha" filterUnits="objectBoundingBox" x="0%" y="0%" width="100%" height="100%">
  <feColorMatrix type="matrix" in="SourceGraphic" values="0 0 0 0 1 0 0 0 0 1 0 0 0 0 1 0 0 0 1 0"/>
</filter>
<mask id="mask0">
  <g filter="url(#alpha)">
<rect x="0" y="0" width="143" height="46" style="fill:rgb(0%,0%,0%);fill-opacity:0.996078;stroke:none;"/>
  </g>
</mask>
<clipPath id="clip1">
  <rect x="0" y="0" width="143" height="46"/>
</clipPath>
<g id="surface5" clip-path="url(#clip1)">
<path style=" stroke:none;fill-rule:evenodd;fill:rgb(93.333333%,30.196078%,17.254902%);fill-opacity:1;" d="M 18.070312 -0.0273438 C 18.722656 -0.0273438 19.375 -0.0273438 20.027344 -0.0273438 C 23.144531 0.523438 25.480469 2.191406 27.035156 4.96875 C 27.9375 6.671875 28.433594 8.488281 28.515625 10.417969 C 31.550781 10.410156 34.585938 10.417969 37.621094 10.445312 C 37.871094 10.550781 38.050781 10.726562 38.152344 10.980469 C 37.742188 20.660156 37.273438 30.339844 36.753906 40.019531 C 36.371094 41.828125 35.28125 42.921875 33.488281 43.304688 C 23.785156 43.339844 14.085938 43.339844 4.386719 43.304688 C 2.859375 42.980469 1.863281 42.074219 1.398438 40.578125 C 1.3125 40.304688 1.257812 40.023438 1.230469 39.738281 C 0.824219 30.667969 0.40625 21.605469 -0.0273438 12.554688 C -0.0273438 12.011719 -0.0273438 11.46875 -0.0273438 10.925781 C 0.101562 10.699219 0.285156 10.542969 0.53125 10.445312 C 3.566406 10.417969 6.601562 10.410156 9.636719 10.417969 C 9.761719 7.101562 11.03125 4.320312 13.433594 2.078125 C 14.785156 0.949219 16.332031 0.246094 18.070312 -0.0273438 Z M 18.292969 2.554688 C 21.136719 2.449219 23.269531 3.628906 24.691406 6.09375 C 25.414062 7.445312 25.8125 8.886719 25.890625 10.417969 C 21.347656 10.417969 16.804688 10.417969 12.261719 10.417969 C 12.351562 7.925781 13.28125 5.820312 15.054688 4.101562 C 16 3.296875 17.082031 2.78125 18.292969 2.554688 Z M 18.515625 15.8125 C 20.84375 15.820312 22.984375 16.445312 24.941406 17.691406 C 25.046875 17.757812 25.101562 17.851562 25.109375 17.972656 C 24.894531 18.433594 24.644531 18.871094 24.355469 19.292969 C 24.304688 19.324219 24.25 19.34375 24.1875 19.347656 C 23.65625 19.039062 23.105469 18.75 22.539062 18.480469 C 20.996094 17.800781 19.394531 17.578125 17.734375 17.804688 C 16.75 18.015625 15.921875 18.492188 15.25 19.238281 C 14.222656 20.753906 14.34375 22.167969 15.613281 23.476562 C 16.152344 23.9375 16.746094 24.3125 17.398438 24.601562 C 18.652344 25.054688 19.902344 25.519531 21.144531 26.003906 C 22.632812 26.585938 23.925781 27.457031 25.023438 28.617188 C 25.972656 29.847656 26.289062 31.234375 25.976562 32.773438 C 25.425781 35.140625 23.980469 36.648438 21.644531 37.292969 C 18.28125 37.996094 15.207031 37.34375 12.429688 35.328125 C 12.1875 35.140625 11.960938 34.933594 11.757812 34.710938 C 12.046875 34.269531 12.335938 33.832031 12.625 33.390625 C 12.683594 33.3125 12.757812 33.257812 12.847656 33.222656 C 13.410156 33.613281 13.976562 33.996094 14.550781 34.375 C 16.214844 35.351562 18 35.765625 19.914062 35.609375 C 21.296875 35.476562 22.460938 34.90625 23.40625 33.894531 C 24.511719 32.050781 24.242188 30.433594 22.59375 29.039062 C 22.109375 28.664062 21.589844 28.34375 21.03125 28.082031 C 19.589844 27.5625 18.15625 27.019531 16.730469 26.453125 C 15.226562 25.890625 14.027344 24.945312 13.125 23.617188 C 11.980469 21.058594 12.496094 18.898438 14.664062 17.128906 C 15.828125 16.324219 17.113281 15.886719 18.515625 15.8125 Z M 18.515625 15.8125 "/>
</g>
<mask id="mask1">
  <g filter="url(#alpha)">
<rect x="0" y="0" width="143" height="46" style="fill:rgb(0%,0%,0%);fill-opacity:0.988235;stroke:none;"/>
  </g>
</mask>
<clipPath id="clip2">
  <rect x="0" y="0" width="143" height="46"/>
</clipPath>
<g id="surface8" clip-path="url(#clip2)">
<path style=" stroke:none;fill-rule:evenodd;fill:rgb(93.333333%,30.196078%,17.254902%);fill-opacity:1;" d="M 52.816406 15.53125 C 55.351562 15.457031 57.695312 16.082031 59.851562 17.410156 C 60.109375 17.558594 60.191406 17.773438 60.105469 18.058594 C 59.765625 18.621094 59.382812 19.15625 58.960938 19.65625 C 58.902344 19.667969 58.847656 19.675781 58.792969 19.6875 C 58.058594 19.308594 57.3125 18.941406 56.558594 18.589844 C 55.066406 18.011719 53.539062 17.878906 51.976562 18.199219 C 50.777344 18.515625 49.910156 19.234375 49.378906 20.359375 C 48.957031 21.710938 49.304688 22.824219 50.414062 23.703125 C 51.042969 24.179688 51.730469 24.550781 52.480469 24.824219 C 54.507812 25.390625 56.445312 26.179688 58.289062 27.183594 C 61.402344 29.207031 62.15625 31.910156 60.550781 35.300781 C 59.511719 36.953125 58.03125 37.972656 56.109375 38.363281 C 52.472656 39 49.195312 38.195312 46.28125 35.945312 C 45.9375 35.734375 45.871094 35.464844 46.085938 35.132812 C 46.382812 34.683594 46.679688 34.234375 46.976562 33.785156 C 47.21875 33.570312 47.46875 33.558594 47.730469 33.753906 C 49.800781 35.460938 52.167969 36.191406 54.824219 35.945312 C 56.171875 35.789062 57.28125 35.199219 58.148438 34.175781 C 59.101562 32.503906 58.851562 31.035156 57.394531 29.769531 C 56.898438 29.363281 56.359375 29.027344 55.777344 28.757812 C 54.453125 28.289062 53.132812 27.820312 51.808594 27.351562 C 50.210938 26.867188 48.839844 26.015625 47.703125 24.796875 C 46.277344 22.855469 46.128906 20.816406 47.257812 18.675781 C 48.289062 17.097656 49.730469 16.113281 51.585938 15.726562 C 52.003906 15.652344 52.414062 15.585938 52.816406 15.53125 Z M 52.816406 15.53125 "/>
</g>
<mask id="mask2">
  <g filter="url(#alpha)">
<rect x="0" y="0" width="143" height="46" style="fill:rgb(0%,0%,0%);fill-opacity:0.984314;stroke:none;"/>
  </g>
</mask>
<clipPath id="clip3">
  <rect x="0" y="0" width="143" height="46"/>
</clipPath>
<g id="surface11" clip-path="url(#clip3)">
<path style=" stroke:none;fill-rule:evenodd;fill:rgb(93.333333%,30.196078%,17.254902%);fill-opacity:1;" d="M 63.875 15.53125 C 64.601562 15.519531 65.328125 15.53125 66.054688 15.558594 C 66.15625 15.585938 66.222656 15.652344 66.25 15.753906 C 66.269531 19.050781 66.285156 22.34375 66.304688 25.640625 C 67.949219 24.410156 69.78125 23.988281 71.808594 24.375 C 74.925781 25.191406 76.707031 27.203125 77.140625 30.414062 C 77.179688 33.074219 77.179688 35.730469 77.140625 38.390625 C 77.121094 38.441406 77.09375 38.488281 77.058594 38.53125 C 76.300781 38.621094 75.535156 38.640625 74.769531 38.585938 C 74.6875 38.558594 74.621094 38.511719 74.570312 38.445312 C 74.554688 35.789062 74.535156 33.128906 74.515625 30.46875 C 74.066406 28.210938 72.699219 26.996094 70.410156 26.820312 C 68.125 26.992188 66.753906 28.210938 66.304688 30.46875 C 66.304688 33.152344 66.265625 35.828125 66.195312 38.5 C 66.132812 38.539062 66.070312 38.570312 65.996094 38.585938 C 65.289062 38.625 64.582031 38.625 63.875 38.585938 C 63.824219 38.566406 63.777344 38.535156 63.734375 38.5 C 63.644531 30.925781 63.625 23.339844 63.679688 15.753906 C 63.71875 15.652344 63.785156 15.574219 63.875 15.53125 Z M 63.875 15.53125 "/>
</g>
<mask id="mask3">
  <g filter="url(#alpha)">
<rect x="0" y="0" width="143" height="46" style="fill:rgb(0%,0%,0%);fill-opacity:0.988235;stroke:none;"/>
  </g>
</mask>
<clipPath id="clip4">
  <rect x="0" y="0" width="143" height="46"/>
</clipPath>
<g id="surface14" clip-path="url(#clip4)">
<path style=" stroke:none;fill-rule:evenodd;fill:rgb(93.333333%,30.196078%,17.254902%);fill-opacity:1;" d="M 85.996094 24.066406 C 89.171875 24.015625 91.507812 25.382812 93.007812 28.167969 C 94.078125 30.703125 93.851562 33.121094 92.335938 35.414062 C 90.492188 37.734375 88.101562 38.679688 85.15625 38.25 C 82.636719 37.734375 80.839844 36.300781 79.765625 33.953125 C 78.648438 30.753906 79.328125 28.007812 81.804688 25.722656 C 83.039062 24.746094 84.433594 24.195312 85.996094 24.066406 Z M 85.996094 26.59375 C 88.527344 26.550781 90.191406 27.730469 90.996094 30.132812 C 91.398438 32.703125 90.421875 34.507812 88.0625 35.554688 C 86.285156 36.121094 84.683594 35.800781 83.257812 34.597656 C 81.628906 32.878906 81.359375 30.960938 82.449219 28.839844 C 83.292969 27.550781 84.476562 26.804688 85.996094 26.59375 Z M 85.996094 26.59375 "/>
</g>
<mask id="mask4">
  <g filter="url(#alpha)">
<rect x="0" y="0" width="143" height="46" style="fill:rgb(0%,0%,0%);fill-opacity:0.984314;stroke:none;"/>
  </g>
</mask>
<clipPath id="clip5">
  <rect x="0" y="0" width="143" height="46"/>
</clipPath>
<g id="surface17" clip-path="url(#clip5)">
<path style=" stroke:none;fill-rule:evenodd;fill:rgb(93.333333%,30.196078%,17.254902%);fill-opacity:1;" d="M 119.398438 24.066406 C 122.890625 24.105469 125.226562 25.773438 126.410156 29.066406 C 126.675781 29.933594 126.75 30.8125 126.632812 31.707031 C 126.515625 31.957031 126.320312 32.097656 126.046875 32.128906 C 122.5625 32.136719 119.082031 32.164062 115.601562 32.210938 C 116.121094 34.070312 117.3125 35.242188 119.175781 35.722656 C 121.304688 36.15625 123.183594 35.667969 124.816406 34.261719 C 124.960938 34.179688 125.109375 34.164062 125.265625 34.207031 C 125.699219 34.753906 126.074219 35.34375 126.382812 35.972656 C 126.273438 36.28125 126.089844 36.53125 125.824219 36.734375 C 124.253906 37.839844 122.503906 38.394531 120.574219 38.390625 C 118.019531 38.421875 115.941406 37.445312 114.34375 35.46875 C 112.804688 33.171875 112.566406 30.738281 113.617188 28.167969 C 114.804688 25.742188 116.734375 24.375 119.398438 24.066406 Z M 119.398438 26.59375 C 121.242188 26.550781 122.667969 27.300781 123.671875 28.839844 C 123.8125 29.089844 123.917969 29.351562 123.980469 29.628906 C 121.242188 29.644531 118.503906 29.628906 115.769531 29.570312 C 116.394531 27.855469 117.605469 26.863281 119.398438 26.59375 Z M 119.398438 26.59375 "/>
</g>
<mask id="mask5">
  <g filter="url(#alpha)">
<rect x="0" y="0" width="143" height="46" style="fill:rgb(0%,0%,0%);fill-opacity:0.984314;stroke:none;"/>
  </g>
</mask>
<clipPath id="clip6">
  <rect x="0" y="0" width="143" height="46"/>
</clipPath>
<g id="surface20" clip-path="url(#clip6)">
<path style=" stroke:none;fill-rule:evenodd;fill:rgb(93.333333%,30.196078%,17.254902%);fill-opacity:1;" d="M 142.972656 30.300781 C 142.972656 30.75 142.972656 31.199219 142.972656 31.648438 C 142.835938 31.886719 142.628906 32.046875 142.359375 32.128906 C 138.875 32.15625 135.394531 32.164062 131.910156 32.15625 C 132.28125 33.824219 133.269531 34.957031 134.871094 35.554688 C 137.230469 36.257812 139.332031 35.808594 141.183594 34.207031 C 141.296875 34.167969 141.40625 34.167969 141.519531 34.207031 C 141.945312 34.695312 142.308594 35.226562 142.609375 35.804688 C 142.652344 36.144531 142.53125 36.414062 142.246094 36.621094 C 140.648438 37.800781 138.851562 38.390625 136.855469 38.390625 C 134.085938 38.390625 131.90625 37.269531 130.320312 35.019531 C 128.945312 32.546875 128.910156 30.058594 130.207031 27.550781 C 131.976562 24.789062 134.484375 23.695312 137.722656 24.265625 C 140.269531 24.992188 141.9375 26.628906 142.71875 29.179688 C 142.816406 29.558594 142.902344 29.933594 142.972656 30.300781 Z M 135.65625 26.59375 C 137.859375 26.566406 139.402344 27.558594 140.289062 29.570312 C 137.535156 29.636719 134.78125 29.644531 132.023438 29.597656 C 132.652344 27.878906 133.863281 26.878906 135.65625 26.59375 Z M 135.65625 26.59375 "/>
</g>
<mask id="mask6">
  <g filter="url(#alpha)">
<rect x="0" y="0" width="143" height="46" style="fill:rgb(0%,0%,0%);fill-opacity:0.984314;stroke:none;"/>
  </g>
</mask>
<clipPath id="clip7">
  <rect x="0" y="0" width="143" height="46"/>
</clipPath>
<g id="surface23" clip-path="url(#clip7)">
<path style=" stroke:none;fill-rule:evenodd;fill:rgb(93.333333%,30.196078%,17.254902%);fill-opacity:1;" d="M 98.394531 45.972656 C 97.726562 45.972656 97.054688 45.972656 96.386719 45.972656 C 96.269531 45.941406 96.183594 45.867188 96.132812 45.746094 C 96.097656 38.613281 96.097656 31.480469 96.132812 24.347656 C 96.160156 24.246094 96.226562 24.179688 96.328125 24.152344 C 97.039062 24.113281 97.746094 24.113281 98.453125 24.152344 C 98.503906 24.171875 98.550781 24.199219 98.59375 24.234375 C 98.664062 24.753906 98.699219 25.277344 98.703125 25.808594 C 100.636719 24.277344 102.804688 23.800781 105.210938 24.375 C 108.230469 25.335938 109.992188 27.386719 110.488281 30.527344 C 110.714844 33.640625 109.511719 36.007812 106.886719 37.632812 C 104.429688 38.894531 101.992188 38.855469 99.570312 37.519531 C 99.265625 37.324219 98.976562 37.109375 98.703125 36.871094 C 98.683594 39.8125 98.667969 42.75 98.648438 45.691406 C 98.628906 45.851562 98.542969 45.945312 98.394531 45.972656 Z M 103.257812 26.652344 C 106.121094 26.902344 107.703125 28.464844 108.003906 31.339844 C 107.851562 33.628906 106.695312 35.125 104.539062 35.832031 C 102.332031 36.285156 100.589844 35.582031 99.316406 33.726562 C 98.351562 31.863281 98.484375 30.085938 99.710938 28.390625 C 100.65625 27.320312 101.839844 26.738281 103.257812 26.652344 Z M 103.257812 26.652344 "/>
</g>
</defs>
<g id="surface1">
<use xlink:href="#surface5" mask="url(#mask0)"/>
<use xlink:href="#surface8" mask="url(#mask1)"/>
<use xlink:href="#surface11" mask="url(#mask2)"/>
<use xlink:href="#surface14" mask="url(#mask3)"/>
<use xlink:href="#surface17" mask="url(#mask4)"/>
<use xlink:href="#surface20" mask="url(#mask5)"/>
<use xlink:href="#surface23" mask="url(#mask6)"/>
</g>
</svg>
